<svg width="48" height="48" viewBox="0 0 48 48" fill="none" xmlns="http://www.w3.org/2000/svg">
<g clip-path="url(#clip0_6_746)">
<path d="M0 0H48V16.0031H0V0Z" fill="#FF9933"/>
<path d="M0 16.0032H48V31.9969H0V16.0032Z" fill="white"/>
<path d="M0 31.9968H48V48H0V31.9968Z" fill="#128807"/>
<path d="M23.9996 30.4C27.5342 30.4 30.3996 27.5346 30.3996 24C30.3996 20.4654 27.5342 17.6 23.9996 17.6C20.465 17.6 17.5996 20.4654 17.5996 24C17.5996 27.5346 20.465 30.4 23.9996 30.4Z" fill="#000088"/>
<path d="M23.9994 29.6C27.0922 29.6 29.5994 27.0928 29.5994 24C29.5994 20.9072 27.0922 18.4 23.9994 18.4C20.9066 18.4 18.3994 20.9072 18.3994 24C18.3994 27.0928 20.9066 29.6 23.9994 29.6Z" fill="white"/>
<path d="M23.9999 25.12C24.6184 25.12 25.1199 24.6186 25.1199 24C25.1199 23.3814 24.6184 22.88 23.9999 22.88C23.3813 22.88 22.8799 23.3814 22.8799 24C22.8799 24.6186 23.3813 25.12 23.9999 25.12Z" fill="#000088"/>
<path d="M29.5146 25.0185C29.6722 25.0392 29.8169 24.9282 29.8377 24.7705C29.8584 24.6128 29.7474 24.4681 29.5897 24.4474C29.432 24.4266 29.2874 24.5376 29.2666 24.6953C29.2458 24.853 29.3569 24.9977 29.5146 25.0185Z" fill="#000088"/>
<path d="M24.0001 29.5999L24.1921 26.2399L24.0001 24.6399L23.8081 26.2399L24.0001 29.5999Z" fill="#000088"/>
<path d="M29.0627 26.411C29.2097 26.4719 29.3782 26.4021 29.439 26.2552C29.4999 26.1082 29.4301 25.9398 29.2832 25.8789C29.1362 25.818 28.9677 25.8878 28.9069 26.0348C28.846 26.1817 28.9158 26.3502 29.0627 26.411Z" fill="#000088"/>
<path d="M22.5506 29.4092L23.6057 26.2133L23.8344 24.6182L23.2348 26.114L22.5506 29.4092Z" fill="#000088"/>
<path d="M28.267 27.6391C28.3932 27.736 28.574 27.7122 28.6708 27.586C28.7676 27.4598 28.7438 27.279 28.6176 27.1822C28.4915 27.0853 28.3107 27.1091 28.2138 27.2353C28.117 27.3615 28.1408 27.5423 28.267 27.6391Z" fill="#000088"/>
<path d="M21.2 28.8494L23.0462 26.0355L23.6799 24.5539L22.7137 25.8435L21.2 28.8494Z" fill="#000088"/>
<path d="M27.1793 28.6194C27.2761 28.7456 27.4569 28.7694 27.5831 28.6726C27.7093 28.5757 27.7331 28.395 27.6363 28.2688C27.5394 28.1426 27.3586 28.1188 27.2325 28.2156C27.1063 28.3124 27.0825 28.4932 27.1793 28.6194Z" fill="#000088"/>
<path d="M20.0406 27.9597L22.5523 25.7195L23.5479 24.4524L22.2807 25.448L20.0406 27.9597Z" fill="#000088"/>
<path d="M25.8754 29.2848C25.9363 29.4318 26.1048 29.5016 26.2517 29.4407C26.3987 29.3798 26.4684 29.2114 26.4076 29.0644C26.3467 28.9175 26.1782 28.8477 26.0313 28.9086C25.8843 28.9694 25.8146 29.1379 25.8754 29.2848Z" fill="#000088"/>
<path d="M19.1506 26.7998L22.1565 25.2861L23.4461 24.3198L21.9645 24.9536L19.1506 26.7998Z" fill="#000088"/>
<path d="M24.4436 29.59C24.4643 29.7477 24.609 29.8587 24.7667 29.8379C24.9244 29.8172 25.0354 29.6725 25.0146 29.5148C24.9939 29.3571 24.8492 29.2461 24.6915 29.2668C24.5338 29.2876 24.4228 29.4323 24.4436 29.59Z" fill="#000088"/>
<path d="M18.5912 25.4493L21.8864 24.7651L23.3822 24.1656L21.787 24.3942L18.5912 25.4493Z" fill="#000088"/>
<path d="M22.9817 29.5144C22.9609 29.6721 23.0719 29.8168 23.2296 29.8376C23.3873 29.8583 23.532 29.7473 23.5527 29.5896C23.5735 29.4319 23.4625 29.2872 23.3048 29.2665C23.1471 29.2457 23.0024 29.3567 22.9817 29.5144Z" fill="#000088"/>
<path d="M18.4004 24L21.7604 24.192L23.3604 24L21.7604 23.808L18.4004 24Z" fill="#000088"/>
<path d="M21.5896 29.0627C21.5287 29.2097 21.5985 29.3782 21.7454 29.439C21.8924 29.4999 22.0609 29.4301 22.1217 29.2832C22.1826 29.1362 22.1128 28.9677 21.9659 28.9069C21.8189 28.846 21.6504 28.9158 21.5896 29.0627Z" fill="#000088"/>
<path d="M18.5914 22.5505L21.7873 23.6056L23.3824 23.8343L21.8866 23.2347L18.5914 22.5505Z" fill="#000088"/>
<path d="M20.3609 28.2664C20.264 28.3926 20.2878 28.5734 20.414 28.6702C20.5402 28.767 20.721 28.7432 20.8178 28.617C20.9147 28.4908 20.8909 28.3101 20.7647 28.2132C20.6385 28.1164 20.4577 28.1402 20.3609 28.2664Z" fill="#000088"/>
<path d="M19.1505 21.2001L21.9644 23.0463L23.446 23.6801L22.1564 22.7138L19.1505 21.2001Z" fill="#000088"/>
<path d="M19.3803 27.179C19.2542 27.2759 19.2304 27.4567 19.3272 27.5829C19.424 27.709 19.6048 27.7328 19.731 27.636C19.8572 27.5392 19.881 27.3584 19.7841 27.2322C19.6873 27.106 19.5065 27.0822 19.3803 27.179Z" fill="#000088"/>
<path d="M20.0401 20.0401L22.2802 22.5518L23.5473 23.5474L22.5517 22.2803L20.0401 20.0401Z" fill="#000088"/>
<path d="M18.7156 25.8752C18.5687 25.936 18.4989 26.1045 18.5598 26.2515C18.6207 26.3984 18.7891 26.4682 18.9361 26.4073C19.083 26.3465 19.1528 26.178 19.0919 26.031C19.0311 25.8841 18.8626 25.8143 18.7156 25.8752Z" fill="#000088"/>
<path d="M21.2004 19.1504L22.7141 22.1562L23.6804 23.4459L23.0467 21.9642L21.2004 19.1504Z" fill="#000088"/>
<path d="M18.4103 24.4433C18.2526 24.4641 18.1416 24.6088 18.1623 24.7665C18.1831 24.9242 18.3278 25.0352 18.4855 25.0144C18.6432 24.9936 18.7542 24.849 18.7334 24.6913C18.7126 24.5336 18.568 24.4226 18.4103 24.4433Z" fill="#000088"/>
<path d="M22.5508 18.5907L23.235 21.8859L23.8346 23.3817L23.6059 21.7866L22.5508 18.5907Z" fill="#000088"/>
<path d="M18.485 22.9814C18.3273 22.9607 18.1826 23.0717 18.1618 23.2294C18.1411 23.3871 18.2521 23.5317 18.4098 23.5525C18.5675 23.5733 18.7121 23.4622 18.7329 23.3046C18.7537 23.1469 18.6427 23.0022 18.485 22.9814Z" fill="#000088"/>
<path d="M23.9994 18.4L23.8074 21.76L23.9994 23.36L24.1914 21.76L23.9994 18.4Z" fill="#000088"/>
<path d="M18.9373 21.589C18.7903 21.5281 18.6218 21.5979 18.561 21.7448C18.5001 21.8918 18.5699 22.0602 18.7168 22.1211C18.8638 22.182 19.0323 22.1122 19.0931 21.9652C19.154 21.8183 19.0842 21.6498 18.9373 21.589Z" fill="#000088"/>
<path d="M25.4489 18.5908L24.3938 21.7867L24.1651 23.3818L24.7647 21.886L25.4489 18.5908Z" fill="#000088"/>
<path d="M19.733 20.3606C19.6068 20.2638 19.426 20.2876 19.3292 20.4138C19.2324 20.54 19.2562 20.7208 19.3824 20.8176C19.5085 20.9144 19.6893 20.8906 19.7862 20.7644C19.883 20.6382 19.8592 20.4575 19.733 20.3606Z" fill="#000088"/>
<path d="M26.8 19.1503L24.9538 21.9641L24.3201 23.4457L25.2863 22.1561L26.8 19.1503Z" fill="#000088"/>
<path d="M20.8202 19.3805C20.7234 19.2543 20.5426 19.2305 20.4164 19.3273C20.2902 19.4241 20.2664 19.6049 20.3633 19.7311C20.4601 19.8573 20.6409 19.8811 20.7671 19.7843C20.8932 19.6874 20.9171 19.5067 20.8202 19.3805Z" fill="#000088"/>
<path d="M27.9594 20.0402L25.4477 22.2803L24.4521 23.5475L25.7193 22.5519L27.9594 20.0402Z" fill="#000088"/>
<path d="M22.1251 18.7152C22.0642 18.5682 21.8957 18.4984 21.7488 18.5593C21.6018 18.6202 21.532 18.7886 21.5929 18.9356C21.6538 19.0825 21.8223 19.1523 21.9692 19.0914C22.1162 19.0306 22.1859 18.8621 22.1251 18.7152Z" fill="#000088"/>
<path d="M28.8499 21.2002L25.844 22.7139L24.5544 23.6802L26.036 23.0464L28.8499 21.2002Z" fill="#000088"/>
<path d="M23.5569 18.41C23.5362 18.2523 23.3915 18.1413 23.2338 18.1621C23.0761 18.1828 22.9651 18.3275 22.9858 18.4852C23.0066 18.6429 23.1513 18.7539 23.309 18.7332C23.4667 18.7124 23.5777 18.5677 23.5569 18.41Z" fill="#000088"/>
<path d="M29.4093 22.5507L26.1141 23.2349L24.6183 23.8344L26.2134 23.6058L29.4093 22.5507Z" fill="#000088"/>
<path d="M25.0188 18.4856C25.0396 18.3279 24.9286 18.1832 24.7709 18.1624C24.6132 18.1417 24.4685 18.2527 24.4477 18.4104C24.427 18.5681 24.538 18.7128 24.6957 18.7335C24.8534 18.7543 24.9981 18.6433 25.0188 18.4856Z" fill="#000088"/>
<path d="M29.6001 24L26.2401 23.808L24.6401 24L26.2401 24.192L29.6001 24Z" fill="#000088"/>
<path d="M26.4109 18.9373C26.4718 18.7903 26.402 18.6218 26.2551 18.561C26.1081 18.5001 25.9396 18.5699 25.8788 18.7168C25.8179 18.8638 25.8877 19.0323 26.0346 19.0931C26.1816 19.154 26.3501 19.0842 26.4109 18.9373Z" fill="#000088"/>
<path d="M29.409 25.4495L26.2132 24.3944L24.6181 24.1657L26.1138 24.7653L29.409 25.4495Z" fill="#000088"/>
<path d="M27.6401 19.7336C27.7369 19.6074 27.7131 19.4266 27.5869 19.3298C27.4608 19.233 27.28 19.2568 27.1831 19.383C27.0863 19.5092 27.1101 19.6899 27.2363 19.7868C27.3625 19.8836 27.5433 19.8598 27.6401 19.7336Z" fill="#000088"/>
<path d="M28.8505 26.7999L26.0366 24.9537L24.555 24.3199L25.8446 25.2862L28.8505 26.7999Z" fill="#000088"/>
<path d="M28.6201 20.8208C28.7463 20.724 28.7701 20.5432 28.6733 20.417C28.5765 20.2908 28.3957 20.267 28.2695 20.3639C28.1433 20.4607 28.1195 20.6415 28.2163 20.7677C28.3132 20.8939 28.494 20.9177 28.6201 20.8208Z" fill="#000088"/>
<path d="M27.9604 27.9597L25.7203 25.4481L24.4531 24.4525L25.4488 25.7196L27.9604 27.9597Z" fill="#000088"/>
<path d="M29.2863 22.1247C29.4333 22.0638 29.503 21.8954 29.4422 21.7484C29.3813 21.6015 29.2128 21.5317 29.0659 21.5925C28.9189 21.6534 28.8491 21.8219 28.91 21.9688C28.9709 22.1158 29.1394 22.1856 29.2863 22.1247Z" fill="#000088"/>
<path d="M26.8015 28.8495L25.2878 25.8437L24.3216 24.554L24.9553 26.0357L26.8015 28.8495Z" fill="#000088"/>
<path d="M29.5912 23.5566C29.7489 23.5358 29.8599 23.3911 29.8391 23.2334C29.8184 23.0757 29.6737 22.9647 29.516 22.9855C29.3583 23.0062 29.2473 23.1509 29.2681 23.3086C29.2888 23.4663 29.4335 23.5773 29.5912 23.5566Z" fill="#000088"/>
<path d="M25.4506 29.4091L24.7665 26.1139L24.1669 24.6182L24.3956 26.2133L25.4506 29.4091Z" fill="#000088"/>
</g>
<defs>
<clipPath id="clip0_6_746">
<rect width="48" height="48" rx="24" fill="white"/>
</clipPath>
</defs>
</svg>
