<svg width="48" height="48" viewBox="0 0 48 48" fill="none" xmlns="http://www.w3.org/2000/svg">
<g clip-path="url(#clip0_6_860)">
<path d="M0 0H48V48H0V0Z" fill="#3A7DCE"/>
<path d="M10.0968 22.5843C9.76865 21.8437 9.76865 21.8437 9.76865 21.1125C9.5999 21.1125 9.57178 21.15 9.47803 21.1125C9.38428 21.0843 9.34678 21.7968 9.0374 21.6562C8.99053 21.5906 9.2624 21.075 8.9624 20.8687C8.86865 20.7937 8.99053 20.3718 8.94365 20.1937C8.94365 20.1937 8.56865 20.4093 8.2874 19.6406C8.15615 19.4437 7.96865 19.8281 7.96865 19.8281C7.96865 19.8281 8.05303 20.0625 7.90303 20.1093C7.6874 19.9406 7.5374 20.0343 7.2749 19.8C7.00303 19.5656 7.33115 19.2937 6.8249 19.0875C7.15303 18.1687 7.15303 18.3562 7.96865 17.9812C7.48115 17.6156 7.48115 17.6156 7.15303 17.0625C6.65615 16.875 6.49678 16.6968 6.00928 16.3312C5.35303 15.4125 5.0249 13.575 5.0249 12.2812C5.4374 11.85 6.00928 13.7531 6.8249 14.3062L7.96865 14.8593C8.6249 15.2343 8.78428 15.5906 9.28115 15.9656L10.7437 16.5187C11.3999 17.0625 11.728 17.8031 12.2155 17.9812C12.7499 17.9812 12.853 17.6437 13.0218 17.6156C13.978 17.5687 14.4749 17.4281 14.6624 17.1C14.8499 16.8375 15.3187 17.25 16.6312 16.6968L16.4624 15.9656C16.4624 15.9656 16.8187 15.6375 17.2874 15.7781C17.2687 15.4406 17.2405 14.55 17.6999 14.1375C17.4187 13.8093 17.6062 13.575 17.6062 13.575C17.6062 13.575 17.8687 13.2937 17.9062 13.1437C17.7655 12.3281 18.0187 12.3187 18.0843 12.0843C18.1405 11.8406 17.8593 11.925 17.9343 11.5968C18.0187 11.2687 18.4968 11.1843 18.553 10.9125C18.6187 10.65 18.4124 10.5093 18.4312 10.4437C18.5249 10.1906 18.4405 9.58121 18.4312 9.34683C19.303 9.07496 19.5937 8.27808 19.903 8.60621C20.0624 7.49996 20.2312 7.13433 21.2155 7.13433C21.3468 6.79683 20.8499 6.50621 21.0468 6.40308C21.3749 6.35621 21.6187 6.37496 22.003 6.93746C22.1249 7.11558 22.1437 6.67496 22.2655 6.62808C22.3968 6.58121 22.6874 6.58121 22.7343 6.36558C22.7718 6.14058 22.8374 5.84996 23.0062 5.48433C23.1468 5.18433 23.2499 5.59683 23.3812 6.17808C24.0655 6.20621 25.6218 6.38433 26.278 6.58121C26.7655 6.73121 27.0937 6.44058 27.5624 6.38433C27.9093 6.77808 28.2374 6.47808 28.4155 7.32183C28.678 7.76246 29.0999 7.34996 29.1937 7.49058C29.7468 9.17808 31.6312 8.03433 31.7624 8.06246C32.0062 8.06246 32.2968 8.82183 32.4843 8.81246C32.7937 8.74683 32.7093 8.51246 32.9718 8.60621C32.9062 9.24371 33.5062 9.98433 33.5062 10.4531C33.5062 10.4531 33.6468 10.5375 33.7874 10.3968C33.9187 10.2562 34.0405 9.89058 34.1624 9.89996C34.4437 9.94683 34.5655 9.99371 34.8937 10.05C35.7749 10.3968 36.2343 10.4718 36.5812 10.6406C36.7312 10.9781 36.8905 11.1468 37.2187 11.0812C37.4812 11.2875 37.2843 11.55 37.4436 11.5687C37.7718 11.3812 37.8843 11.1843 38.203 11.3625C38.5312 11.55 38.8593 11.925 39.028 12.2812C39.028 12.4687 38.8593 13.2 39.028 14.3062C39.103 14.6812 39.1499 14.9625 39.4968 15.6C39.403 16.2468 39.9374 17.3343 39.9374 17.6156C39.9374 17.9812 39.6749 18.1781 39.5155 18.5343C40.1718 19.0968 39.5155 20.0062 39.1874 20.5593C41.6437 21.1125 40.4999 22.2187 42.4593 21.6656C41.9624 22.95 42.1405 22.8468 42.628 24.1312C41.653 24.8718 42.6093 25.0968 41.953 26.0062C41.9155 26.0718 42.3468 26.8125 42.9468 26.8125C42.7874 28.2843 42.2905 27.7312 42.4593 29.9343C41.1655 29.9062 41.6905 31.5843 40.8186 31.4062C40.8749 32.4656 41.3155 32.55 41.1468 33.6187C40.4905 33.8062 40.4905 33.8062 40.1718 34.35L39.6749 34.1625C39.5155 35.0906 39.1874 35.2687 39.6749 36.1875C39.6749 36.1875 39.0468 36.2156 38.8593 36.1875C38.8499 36.5062 39.1405 36.5906 39.1874 36.9281C39.1593 37.0593 38.2499 37.6406 37.5562 37.6593C37.3687 38.1187 38.0437 38.5968 38.0061 38.8312C37.2374 38.9906 36.8999 40.05 36.8999 40.05C36.8999 40.05 37.2937 40.2375 37.228 40.425C37.0124 40.2468 36.8999 40.2375 36.5718 40.2375C36.4124 40.2843 36.0093 40.2281 35.6343 40.95C35.2124 41.1093 35.0155 41.0437 34.6968 41.5218C34.5562 41.0718 34.3499 41.5218 34.1062 41.7093C33.853 41.8781 33.5249 42.3093 33.478 42.2906C33.4874 42.1687 33.628 41.7093 33.628 41.7093L32.8124 41.8968H32.7187C32.6437 41.9062 32.6624 41.3625 32.5124 41.3812C32.353 41.4093 31.9124 42.0656 31.7624 42.0937C31.6124 42.1125 31.5655 41.8781 31.4343 41.9062C31.303 41.9156 31.0499 42.6 30.9655 42.6187C30.8718 42.6375 30.4968 42.2062 30.1874 42.2625C28.5749 42.9 28.3218 41.0062 28.0687 42.075C27.7312 41.8781 27.7874 41.9906 27.4499 42.0937C27.2343 42.1593 27.2155 41.7656 27.0187 41.775C26.6249 41.7843 26.6437 42.1968 26.4374 42.075C26.2687 41.2125 25.2187 41.3718 25.1155 40.9968C25.0312 40.6218 25.5655 40.6218 25.7437 40.3593C25.8749 39.9843 25.603 39.8437 26.1468 39.4781C26.8405 38.9437 26.4374 38.7468 26.5593 38.3437C26.7843 37.7625 26.7843 37.6218 26.5968 37.1062C26.5968 37.1062 26.053 35.4562 25.9405 35.4562C25.6218 35.3531 25.6218 36.0656 25.1437 36.2625C24.1593 36.6281 22.4249 35.325 22.1249 35.325C21.8437 35.3343 20.578 35.6718 20.6249 34.95C20.4374 35.6531 19.7249 35.1187 19.6874 35.1187C19.0312 35.1187 19.2843 35.6812 18.8437 35.6625C18.6468 35.5875 16.6312 35.4562 16.6312 35.4562V35.8312L15.3187 35.0812L14.1749 34.7156C13.1999 34.35 13.6874 33.4312 12.0562 33.9843V32.8781H11.2405C11.5593 30.675 11.2405 31.7812 11.0718 29.7562L10.4155 29.9437C9.75928 28.9406 11.3249 29.1375 9.92803 28.4625C9.92803 28.4625 9.95615 27.3656 9.5999 27.7312C9.53428 27.7781 9.76865 28.2843 9.76865 28.2843C8.45615 28.0968 8.12803 27.7312 8.12803 26.2593C8.12803 26.2593 9.20615 26.4375 9.1124 26.2593C8.9624 25.9781 8.75615 24.1968 8.79365 24.075C8.7749 23.8312 9.79678 23.2218 9.5999 22.6406C9.72178 22.5843 10.0968 22.5843 10.0968 22.5843Z" fill="white"/>
<path d="M43.3366 27.9375C43.2882 28.0554 43.2963 28.1734 43.3446 28.2641C43.4334 28.1099 43.3608 28.0463 43.3446 27.9375H43.3366ZM4.94971 14.3831C4.94971 14.3831 4.70777 14.3468 4.75616 14.5917C4.8368 14.4103 4.94164 14.3921 4.94971 14.3831ZM4.92551 13.8024C4.78842 13.8024 4.61906 13.7843 4.68358 14.0292C4.76422 13.8387 4.92551 13.8115 4.92551 13.8024ZM5.9497 17.0958C5.9497 17.0958 6.15938 17.0776 6.11099 17.3226C6.03034 17.1411 5.9497 17.1048 5.9497 17.0958Z" stroke="white" stroke-width="0.213842" stroke-linejoin="round"/>
</g>
<defs>
<clipPath id="clip0_6_860">
<rect width="48" height="48" rx="24" fill="white"/>
</clipPath>
</defs>
</svg>
