<svg width="24" height="24" viewBox="0 0 24 24" fill="none" xmlns="http://www.w3.org/2000/svg">
<path d="M13.7869 3.54545L13.4545 15.767H10.3352L9.99432 3.54545H13.7869ZM11.8949 21.2216C11.3324 21.2216 10.8494 21.0227 10.446 20.625C10.0426 20.2216 9.84375 19.7386 9.84943 19.1761C9.84375 18.6193 10.0426 18.142 10.446 17.7443C10.8494 17.3466 11.3324 17.1477 11.8949 17.1477C12.4347 17.1477 12.9091 17.3466 13.3182 17.7443C13.7273 18.142 13.9347 18.6193 13.9403 19.1761C13.9347 19.5511 13.8352 19.8949 13.642 20.2074C13.4545 20.5142 13.2074 20.7614 12.9006 20.9489C12.5938 21.1307 12.2585 21.2216 11.8949 21.2216Z" fill="#660F03"/>
</svg>
