<svg width="138" height="39" viewBox="0 0 138 39" fill="none" xmlns="http://www.w3.org/2000/svg">
<path d="M0.408 16.624C0.144 15.376 1.176 14.512 2.208 14.512C2.832 14.512 3.456 14.848 3.768 15.592C4.344 17.008 5.712 18.712 7.056 18.712C7.92 18.712 8.352 18.112 8.352 17.44C8.352 14.536 0.888 13.864 0.888 9.976C0.888 7.744 3 6.544 6.864 6.544C8.616 6.544 11.04 7.24 11.688 8.752C12.264 10.048 11.28 11.176 10.128 11.176C9.528 11.176 8.88 10.864 8.4 10.12C7.224 8.248 6.72 7.288 5.928 7.288C5.16 7.288 4.968 8.08 4.968 8.56C4.968 12.208 12.408 12.736 12.408 15.856C12.408 18.352 9.504 19.48 6.456 19.48C4.536 19.48 0.888 18.832 0.408 16.624ZM19.8746 19.48C16.5626 19.48 13.3706 16.84 13.3706 13.048C13.3706 9.184 16.3466 6.544 19.5146 6.544C23.5706 6.544 25.0346 9.904 25.4906 11.536C25.6826 11.992 25.3706 12.4 24.7946 12.4H16.8986C17.6186 14.824 19.1546 17.512 21.4826 17.512C23.3546 17.512 24.4106 16.216 24.7466 15.712C24.8906 15.496 25.0586 15.4 25.2266 15.4C25.4906 15.4 25.6586 15.664 25.4666 16.096C24.8186 17.464 22.7306 19.48 19.8746 19.48ZM16.7066 11.68H22.2506C21.7466 10.312 20.4746 7.504 18.4826 7.504C17.2346 7.504 16.4426 8.368 16.4426 9.688C16.4426 10.216 16.5386 10.912 16.7066 11.68ZM34.6316 6.544C37.1996 6.544 40.2956 7.768 40.2956 12.496C40.2956 14.536 40.1756 17.608 41.3036 18.28C41.6156 18.472 41.6636 19 41.3036 19H35.2076C34.8476 19 34.8956 18.472 35.2076 18.28C36.1916 17.68 36.2156 14.536 36.2156 13.264C36.2156 11.776 36.7436 7.24 34.2956 7.24C32.2556 7.24 31.9916 9.328 31.9676 10.072V12.496C31.9676 14.536 31.8476 17.608 32.9756 18.28C33.2876 18.472 33.3356 19 32.9756 19H26.8796C26.5196 19 26.5676 18.472 26.8796 18.28C27.8636 17.68 27.8876 15.544 27.8876 14.32V11.056C27.8876 9.808 27.8156 8.248 26.8796 7.696C26.5676 7.504 26.5196 7 26.8796 6.976L31.2716 6.592C31.6796 6.568 31.9676 6.832 31.9676 7.24V7.84C32.4476 7.144 33.2636 6.544 34.6316 6.544ZM42.0581 12.544C42.0581 8.68 44.9621 6.544 48.0101 6.544C50.0501 6.544 51.1301 7.576 51.7301 8.728C51.7301 7.888 51.7301 7.216 51.7301 6.952C51.7061 5.2 51.5141 3.568 50.7221 3.04C50.3381 2.8 50.4341 2.32 50.7221 2.32L55.8101 1.672V13.84C55.8101 14.536 55.7621 17.608 56.8181 18.256C57.1301 18.448 57.1781 19 55.8821 19C53.6501 19 52.4261 18.352 51.9701 17.08C51.4421 17.968 50.3621 19 48.2501 19C44.9621 19 42.0581 16.6 42.0581 12.544ZM48.1301 7.264C43.6661 7.264 45.6101 18.232 48.9221 18.232C51.2261 18.232 51.7061 15.832 51.7301 15.832C51.7301 15.76 51.7301 15.664 51.7301 15.592C51.7301 15.232 51.7301 13.216 51.7301 11.2C51.7301 11.176 51.6341 7.264 48.1301 7.264ZM58.3562 19C57.9962 19 58.0442 18.472 58.3562 18.28C59.3402 17.68 59.3642 15.544 59.3642 14.32V11.056C59.3642 9.808 59.2922 8.248 58.3562 7.696C58.0442 7.504 57.9962 7 58.3562 6.976L62.7482 6.592C63.1562 6.568 63.4442 6.832 63.4442 7.24V8.032C63.9962 7.24 64.9562 6.544 66.6842 6.544C68.2202 6.544 70.3802 7.24 71.3162 9.16C71.6762 7.936 72.5162 6.52 74.4362 6.52C77.0042 6.52 80.1002 7.744 80.1002 12.472C80.1002 14.512 79.9802 17.608 81.1082 18.28C81.4202 18.472 81.4682 19 81.1082 19H75.0122C74.6522 19 74.7002 18.472 75.0122 18.28C75.9962 17.68 76.0202 14.512 76.0202 13.24C76.0202 11.752 76.5482 7.216 74.1242 7.216C71.6042 7.216 71.7722 11.032 71.7722 11.032C71.7722 11.104 71.7722 11.2 71.7722 11.272V18.304C71.7722 18.712 71.4842 19 71.0762 19H66.6842C66.3242 19 66.3722 18.472 66.6842 18.28C67.6682 17.68 67.6922 14.536 67.6922 13.264C67.6922 11.776 68.2202 7.24 65.8682 7.24C63.4442 7.24 63.4442 10.336 63.4442 10.336V12.496C63.4442 14.536 63.3242 17.608 64.4522 18.28C64.7642 18.472 64.8122 19 64.4522 19H58.3562ZM88.2413 19.48C84.6893 19.48 81.7613 16.528 81.7613 13C81.7613 9.448 84.6893 6.544 88.2413 6.544C91.7693 6.544 94.6973 9.448 94.6973 13C94.6973 16.528 91.7933 19.48 88.2413 19.48ZM85.7453 7.816C84.2573 8.536 84.8092 11.344 86.0573 14.032C87.1853 16.36 88.7213 18.328 90.1133 18.328C90.3293 18.328 90.5453 18.28 90.7373 18.184C92.2253 17.464 91.6493 14.632 90.3773 11.968C89.2733 9.64 87.7373 7.672 86.3693 7.672C86.1533 7.672 85.9373 7.72 85.7453 7.816ZM103.374 6.544C105.942 6.544 109.038 7.768 109.038 12.496C109.038 14.536 108.918 17.608 110.046 18.28C110.358 18.472 110.406 19 110.046 19H103.95C103.59 19 103.638 18.472 103.95 18.28C104.934 17.68 104.958 14.536 104.958 13.264C104.958 11.776 105.486 7.24 103.038 7.24C100.998 7.24 100.734 9.328 100.71 10.072V12.496C100.71 14.536 100.59 17.608 101.718 18.28C102.03 18.472 102.078 19 101.718 19H95.6218C95.2618 19 95.3098 18.472 95.6218 18.28C96.6058 17.68 96.6298 15.544 96.6298 14.32V11.056C96.6298 9.808 96.5578 8.248 95.6218 7.696C95.3098 7.504 95.2618 7 95.6218 6.976L100.014 6.592C100.422 6.568 100.71 6.832 100.71 7.24V7.84C101.19 7.144 102.006 6.544 103.374 6.544ZM117.726 19.48C114.414 19.48 111.222 16.84 111.222 13.048C111.222 9.184 114.198 6.544 117.366 6.544C121.422 6.544 122.886 9.904 123.342 11.536C123.534 11.992 123.222 12.4 122.646 12.4H114.75C115.47 14.824 117.006 17.512 119.334 17.512C121.206 17.512 122.262 16.216 122.598 15.712C122.742 15.496 122.91 15.4 123.078 15.4C123.342 15.4 123.51 15.664 123.318 16.096C122.67 17.464 120.582 19.48 117.726 19.48ZM114.558 11.68H120.102C119.598 10.312 118.326 7.504 116.334 7.504C115.086 7.504 114.294 8.368 114.294 9.688C114.294 10.216 114.39 10.912 114.558 11.68ZM127.292 23.512C122.707 23.512 122.587 19.48 125.012 19.456C127.796 19.432 126.62 22.384 128.012 22.384C129.308 22.384 130.052 20.128 130.46 19H129.164C128.756 19 128.372 18.712 128.228 18.304C127.748 16.96 126.692 14.008 126.332 13C125.468 10.696 124.556 7.936 123.692 7.576C123.332 7.432 123.356 7 123.716 7H128.9C129.26 7 129.212 7.408 128.876 7.576C128.252 7.888 129.523 10.696 130.388 13C130.604 13.6 131.276 15.52 131.42 16C131.492 15.808 131.564 15.616 131.636 15.4C132.836 12.16 133.676 8.632 132.02 7.72C131.66 7.528 131.66 7 132.02 7H136.652C137.012 7 137.036 7.528 136.652 7.72C135.452 8.32 134.036 12.16 132.836 15.4C132.62 15.976 132.62 15.976 131.588 19C130.772 21.28 130.196 23.512 127.292 23.512Z" fill="#111111"/>
<path d="M0.9 36C0.252 36 0.276 35.724 0.432 35.628C0.96 35.304 0.936 33.768 0.936 33.42V30C0.936 29.184 0.804 28.272 0.432 28.044C0.276 27.948 0.252 27.708 0.432 27.684L2.64 27.408C2.844 27.384 2.976 27.504 2.976 27.708V30.552C3.264 30.156 3.792 29.772 4.716 29.772C6.36 29.772 7.812 30.972 7.812 33C7.812 34.932 6.36 36 4.836 36C3.768 36 3.216 35.424 2.928 34.812C2.76 35.592 2.148 36 0.9 36ZM4.38 30.156C3.228 30.156 2.988 31.356 2.976 31.356V33.672C2.976 33.684 3.024 35.64 4.776 35.64C7.008 35.64 6.036 30.156 4.38 30.156ZM9.71606 38.256C7.42406 38.256 7.36406 36.24 8.57606 36.228C9.96806 36.216 9.38006 37.692 10.0761 37.692C10.7241 37.692 11.0961 36.564 11.3001 36H10.6521C10.4481 36 10.2561 35.856 10.1841 35.652C9.94406 34.98 9.41606 33.504 9.23606 33C8.80406 31.848 8.34806 30.468 7.91606 30.288C7.73606 30.216 7.74806 30 7.92806 30H10.5201C10.7001 30 10.6761 30.204 10.5081 30.288C10.1961 30.444 10.8321 31.848 11.2641 33C11.3721 33.3 11.7081 34.26 11.7801 34.5C11.8161 34.404 11.8521 34.308 11.8881 34.2C12.4881 32.58 12.9081 30.816 12.0801 30.36C11.9001 30.264 11.9001 30 12.0801 30H14.3961C14.5761 30 14.5881 30.264 14.3961 30.36C13.7961 30.66 13.0881 32.58 12.4881 34.2C12.3801 34.488 12.3801 34.488 11.8641 36C11.4561 37.14 11.1681 38.256 9.71606 38.256Z" fill="#111111"/>
<path d="M18.0173 32.772C18.0173 30.84 19.4693 29.772 20.9933 29.772C22.0133 29.772 22.5533 30.288 22.8533 30.864C22.8533 30.444 22.8533 30.108 22.8533 29.976C22.8413 29.1 22.7453 28.284 22.3493 28.02C22.1573 27.9 22.2053 27.66 22.3493 27.66L24.8933 27.336V33.42C24.8933 33.768 24.8693 35.304 25.3973 35.628C25.5533 35.724 25.5773 36 24.9293 36C23.8133 36 23.2013 35.676 22.9733 35.04C22.7093 35.484 22.1693 36 21.1133 36C19.4693 36 18.0173 34.8 18.0173 32.772ZM21.0533 30.132C18.8213 30.132 19.7933 35.616 21.4493 35.616C22.6013 35.616 22.8413 34.416 22.8533 34.416C22.8533 34.38 22.8533 34.332 22.8533 34.296C22.8533 34.116 22.8533 33.108 22.8533 32.1C22.8533 32.088 22.8053 30.132 21.0533 30.132ZM29.0154 36.24C27.3594 36.24 25.7634 34.92 25.7634 33.024C25.7634 31.092 27.2514 29.772 28.8354 29.772C30.8634 29.772 31.5954 31.452 31.8234 32.268C31.9194 32.496 31.7634 32.7 31.4754 32.7H27.5274C27.8874 33.912 28.6554 35.256 29.8194 35.256C30.7554 35.256 31.2834 34.608 31.4514 34.356C31.5234 34.248 31.6074 34.2 31.6914 34.2C31.8234 34.2 31.9074 34.332 31.8114 34.548C31.4874 35.232 30.4434 36.24 29.0154 36.24ZM27.4314 32.34H30.2034C29.9514 31.656 29.3154 30.252 28.3194 30.252C27.6954 30.252 27.2994 30.684 27.2994 31.344C27.2994 31.608 27.3474 31.956 27.4314 32.34ZM35.5779 36.24C33.9219 36.24 32.3259 34.92 32.3259 33.024C32.3259 31.092 33.8139 29.772 35.3979 29.772C37.4259 29.772 38.1579 31.452 38.3859 32.268C38.4819 32.496 38.3259 32.7 38.0379 32.7H34.0899C34.4499 33.912 35.2179 35.256 36.3819 35.256C37.3179 35.256 37.8459 34.608 38.0139 34.356C38.0859 34.248 38.1699 34.2 38.2539 34.2C38.3859 34.2 38.4699 34.332 38.3739 34.548C38.0499 35.232 37.0059 36.24 35.5779 36.24ZM33.9939 32.34H36.7659C36.5139 31.656 35.8779 30.252 34.8819 30.252C34.2579 30.252 33.8619 30.684 33.8619 31.344C33.8619 31.608 33.9099 31.956 33.9939 32.34ZM40.6284 31.32C40.5084 31.908 40.1244 32.16 39.7764 32.16C39.3444 32.16 38.9484 31.764 39.1284 31.092C39.3924 30.12 40.4604 30 41.8764 30H43.9524C44.1564 30 44.2404 30.12 44.1324 30.3L41.0124 35.64C42.0564 35.64 42.4884 35.58 42.6804 34.68C42.8004 34.092 43.1844 33.84 43.5324 33.84C43.9644 33.84 44.3604 34.236 44.1804 34.908C43.9164 35.88 42.8484 36 41.4324 36H39.1164C38.9124 36 38.8284 35.88 38.9364 35.7L42.0564 30.36C41.1804 30.372 40.8084 30.504 40.6284 31.32ZM48.7689 29.772C50.0529 29.772 51.6009 30.384 51.6009 32.748C51.6009 33.768 51.5409 35.304 52.1049 35.64C52.2609 35.736 52.2849 36 52.1049 36H49.0569C48.8769 36 48.9009 35.736 49.0569 35.64C49.5489 35.34 49.5609 33.768 49.5609 33.132C49.5609 32.388 49.8249 30.12 48.6009 30.12C47.5809 30.12 47.4489 31.164 47.4369 31.536V32.748C47.4369 33.768 47.3769 35.304 47.9409 35.64C48.0969 35.736 48.1209 36 47.9409 36H44.8929C44.7129 36 44.7369 35.736 44.8929 35.64C45.3849 35.34 45.3969 34.272 45.3969 33.66V32.028C45.3969 31.404 45.3609 30.624 44.8929 30.348C44.7369 30.252 44.7129 30 44.8929 29.988L47.0889 29.796C47.2929 29.784 47.4369 29.916 47.4369 30.12V30.42C47.6769 30.072 48.0849 29.772 48.7689 29.772ZM52.3681 30.36C52.2121 30.264 52.1881 30.012 52.3681 30L54.5881 29.808C54.7921 29.784 54.9241 29.916 54.9241 30.12C54.9241 30.864 54.9121 31.728 54.9121 32.628C54.9121 33.372 54.6481 35.64 55.8001 35.64C57.1201 35.64 57.0361 34.092 57.0361 34.092H57.0481V31.968C57.0481 31.512 57.1081 30.72 56.5441 30.384C56.3881 30.288 56.3641 30.036 56.5441 30.024L58.7401 29.832C58.9441 29.808 59.0881 29.94 59.0881 30.144V32.772C59.0881 33.792 59.0041 35.352 59.5921 35.652C59.7721 35.748 59.7721 36 59.5321 36C58.2361 36 57.4921 35.7 57.2041 35.04C56.9881 35.52 56.5681 36 55.7041 36C54.4201 36 52.8721 35.376 52.8721 33.012C52.8721 31.992 52.9321 30.696 52.3681 30.36ZM59.925 30.36C59.817 30.36 59.745 30.288 59.745 30.18C59.745 30.072 59.817 30 59.925 30H60.201C61.065 30 61.881 29.436 61.881 28.248C61.881 28.14 61.977 28.08 62.061 28.08C62.157 28.08 62.241 28.14 62.241 28.248V30H63.273C63.381 30 63.453 30.072 63.453 30.18C63.453 30.3 63.381 30.36 63.273 30.36H62.241V32.748C62.241 33.768 62.181 35.304 62.745 35.64C62.901 35.736 62.925 36 62.385 36C61.173 36 60.201 35.436 60.201 34.332V30.36H59.925ZM63.7782 34.812C63.6462 34.188 64.1622 33.756 64.6782 33.756C64.9902 33.756 65.3022 33.924 65.4582 34.296C65.7462 35.004 66.4302 35.856 67.1022 35.856C67.5342 35.856 67.7502 35.556 67.7502 35.22C67.7502 33.768 64.0182 33.432 64.0182 31.488C64.0182 30.372 65.0742 29.772 67.0062 29.772C67.8822 29.772 69.0942 30.12 69.4182 30.876C69.7062 31.524 69.2142 32.088 68.6382 32.088C68.3382 32.088 68.0142 31.932 67.7742 31.56C67.1862 30.624 66.9342 30.144 66.5382 30.144C66.1542 30.144 66.0582 30.54 66.0582 30.78C66.0582 32.604 69.7782 32.868 69.7782 34.428C69.7782 35.676 68.3262 36.24 66.8022 36.24C65.8422 36.24 64.0182 35.916 63.7782 34.812Z" fill="#F99696"/>
</svg>
