<svg width="48" height="48" viewBox="0 0 48 48" fill="none" xmlns="http://www.w3.org/2000/svg">
<g clip-path="url(#clip0_6_847)">
<path d="M0 0H48V48H0V0Z" fill="#012169"/>
<path d="M48 0V6L30.1875 24L48 41.5312V48H41.7188L23.8125 30.375L6.375 48H0V41.625L17.4375 24.0938L0 6.9375V0H5.8125L23.8125 17.625L41.25 0H48Z" fill="white"/>
<path d="M17.25 30.375L18.2812 33.5625L3.9375 48H0V47.7188L17.25 30.375ZM28.875 29.25L33.9375 30L48 43.7812V48L28.875 29.25ZM48 0L30 18.375L29.625 14.25L43.6875 0H48ZM0 0.09375L18.0938 17.8125L12.5625 17.0625L0 4.59375V0.09375Z" fill="#C8102E"/>
<path d="M16.5 0V48H31.5V0H16.5ZM0 16.5V31.5H48V16.5H0Z" fill="white"/>
<path d="M0 19.5V28.5H48V19.5H0ZM19.5 0V48H28.5V0H19.5Z" fill="#C8102E"/>
</g>
<defs>
<clipPath id="clip0_6_847">
<rect width="48" height="48" rx="24" fill="white"/>
</clipPath>
</defs>
</svg>
